<?xml version="1.0" standalone="no"?><!DOCTYPE svg PUBLIC "-//W3C//DTD SVG 1.1//EN" "http://www.w3.org/Graphics/SVG/1.1/DTD/svg11.dtd"><svg t="1512471347743" class="icon" style="" viewBox="0 0 1024 1024" version="1.1" xmlns="http://www.w3.org/2000/svg" p-id="1561" xmlns:xlink="http://www.w3.org/1999/xlink" width="200" height="200"><defs><style type="text/css"></style></defs><path d="M964.608 589.312c-20.992 0-37.888 16.896-37.888 38.4s16.896 38.4 37.888 38.4 37.888-16.896 37.888-38.4-16.896-38.4-37.888-38.4zM926.72 433.664c0 20.992 16.896 38.4 37.888 38.4s37.888-16.896 37.888-38.4-16.896-38.4-37.888-38.4-37.888 17.408-37.888 38.4z m37.376-115.712C889.856 136.192 713.216 8.704 507.904 8.704c-272.896 0-494.08 224.768-494.08 502.784 0 277.504 221.184 502.784 494.08 502.784h0.512v-69.12c-236.032 0-427.52-194.56-427.52-434.688S272.384 75.776 508.928 75.776c168.448 0 313.344 98.816 383.488 242.176h71.68z" p-id="1562" fill="#707070"></path><path d="M425.472 359.936c21.504 19.456 32.256 44.544 32.256 76.288 0 30.72-11.776 57.856-34.304 82.944-13.824 14.848-38.4 33.28-72.704 56.832-35.84 23.552-57.344 44.544-65.536 61.952H458.24v50.688H212.992c0-35.84 11.264-67.072 34.816-93.696 12.8-14.848 39.936-36.352 80.896-64.512 22.528-15.872 38.4-29.184 48.128-39.424 15.36-17.408 23.04-35.84 23.04-55.808 0-18.944-5.632-33.28-15.36-43.008-10.24-9.216-25.6-13.824-45.568-13.824-21.504 0-37.888 7.168-48.64 22.016-10.752 13.824-16.896 34.816-17.92 62.464H215.04c0.512-39.424 11.776-70.656 34.304-95.232 23.04-25.6 53.76-38.4 91.648-38.4 34.304 1.024 62.464 10.752 84.48 30.72z m291.84-23.04v230.4h52.224v45.568h-52.224v75.264h-54.784v-75.264H492.544V558.08l172.032-221.696h52.736z m-177.664 230.4h122.88V409.6h-1.536L539.648 567.296zM675.328 725.504v117.76c7.168-13.312 16.896-23.04 28.672-29.696 11.264-6.144 23.552-9.728 37.376-9.728 24.064 0 42.496 6.656 55.296 20.992 12.8 13.824 18.944 34.304 18.944 60.416v130.048h-31.232V890.368c0-18.944-4.608-33.792-13.312-44.032-9.728-10.24-22.528-15.36-39.936-15.36-15.872 0-29.184 6.144-39.424 18.944-10.752 12.8-15.872 29.184-15.872 48.128v117.248h-31.744V725.504h31.232z m308.224 82.944v31.744c-10.24-3.072-20.48-4.608-30.72-4.608-15.872 0-29.696 6.656-40.448 20.992C901.12 869.888 896 886.272 896 905.728v109.056h-31.232V808.96H896v35.84c5.632-11.776 12.8-21.504 21.504-28.16 10.752-8.704 23.04-13.312 37.376-13.312 11.776 0.512 20.992 2.048 28.672 5.12z" p-id="1563" fill="#707070"></path></svg>