<?xml version="1.0" standalone="no"?><!DOCTYPE svg PUBLIC "-//W3C//DTD SVG 1.1//EN" "http://www.w3.org/Graphics/SVG/1.1/DTD/svg11.dtd"><svg t="1512471418761" class="icon" style="" viewBox="0 0 1256 1024" version="1.1" xmlns="http://www.w3.org/2000/svg" p-id="3445" xmlns:xlink="http://www.w3.org/1999/xlink" width="245.3125" height="200"><defs><style type="text/css"></style></defs><path d="M492.676129 10.206968c98.270968-13.840516 179.431226-13.345032 269.278968 0 61.473032 13.01471 123.771871 23.188645 184.220903 39.969032 44.75871 12.420129 77.09729 42.776774 93.084903 89.154065 25.401806 73.265548 52.025806 146.101677 80.037161 218.376258 4.756645 12.089806 20.248774 29.894194 28.936258 28.936258 58.896516-6.639484 86.610581 26.095484 104.613161 74.520774 4.327226 14.831484 1.915871 29.696 0 39.506581-24.542968 6.804645-49.085935 13.543226-71.646968 19.75329 3.171097 25.500903 8.91871 51.398194 9.050839 77.295484 0.990968 118.123355 1.717677 236.279742-0.660645 354.403097-0.396387 21.074581-12.58529 53.875613-21.074581 59.193806-8.026839 13.807484-186.797419 13.146839-200.704 3.567484-46.443355-30.158452-17.870452-80.763871-32.768-121.822968L327.68 893.060129c-11.759484 43.437419-18.762323 116.372645-32.933161 121.822968-30.918194 11.891613-196.641032 12.321032-205.890065 0-12.552258-8.885677-21.074581-44.692645-22.726194-67.683097-3.435355-49.746581-1.453419-99.889548-0.957935-149.867355 0.924903-92.787613 2.312258-185.575226 3.534452-278.990452-17.408-4.558452-42.182194-11.131871-66.956387-17.70529-1.354323-8.885677-3.138065-19.75329 0-31.611871 17.209806-51.133935 42.380387-90.607484 106.892387-82.382452 7.795613 0.990968 22.164645-15.65729 26.425806-26.822194 22.032516-57.740387 45.683613-115.381677 61.44-174.971871 26.392774-100.186839 98.766452-140.486194 191.157677-158.257548C422.449548 19.951484 457.694968 15.591226 492.676129 10.206968L492.676129 10.206968zM215.33729 405.867355c279.155613 57.773419 546.716903 59.127742 821.181935 0-23.056516-71.019355-46.179097-134.110968-63.587097-198.656C957.935484 151.783226 922.062452 124.498581 868.64929 122.120258c-130.180129-5.84671-260.39329-10.504258-390.606452-11.495226-42.875871-0.330323-86.379355 9.810581-128.462452 19.852387-17.341935 4.162065-40.167226 17.374968-46.08 32.239484C272.450065 240.309677 245.958194 319.818323 215.33729 405.867355L215.33729 405.867355zM268.915613 707.782194C269.01471 706.26271 268.849548 709.268645 268.915613 707.782194c22.329806 0 45.815742-0.792774 67.055484-5.747613 15.426065-3.600516 34.981161-16.119742 39.869935-29.365677 3.435355-9.414194-11.363097-33.560774-23.618065-39.20929-51.001806-23.651097-103.390968-45.089032-156.837161-62.629161-26.624-8.753548-56.286968-7.101935-64.875355 30.852129-12.519226 55.494194-0.825806 86.445419 40.695742 95.099871C203.148387 703.421935 236.279742 704.346839 268.915613 707.782194L268.915613 707.782194zM992.256 707.617032c28.837161-3.468387 64.578065-4.756645 98.799484-12.717419 46.773677-10.735484 36.897032-50.209032 35.806968-83.637677-0.924903-28.605935-18.696258-50.109935-44.461419-42.083097-64.412903 19.984516-128.363355 43.536516-188.977548 72.935226-27.846194 13.543226-17.870452 50.869677 13.807484 57.806452C932.599742 705.436903 959.322839 704.908387 992.256 707.617032L992.256 707.617032zM992.256 707.617032" p-id="3446" fill="#8a8a8a"></path></svg>