<?xml version="1.0" standalone="no"?><!DOCTYPE svg PUBLIC "-//W3C//DTD SVG 1.1//EN" "http://www.w3.org/Graphics/SVG/1.1/DTD/svg11.dtd"><svg t="1512471555569" class="icon" style="" viewBox="0 0 1024 1024" version="1.1" xmlns="http://www.w3.org/2000/svg" p-id="8495" xmlns:xlink="http://www.w3.org/1999/xlink" width="200" height="200"><defs><style type="text/css"></style></defs><path d="M511.988978 0a509.429033 509.429033 0 0 0-221.435233 50.630021 7.822054 7.822054 0 0 1 0.995534 3.697698 7.964273 7.964273 0 0 1-2.275506 5.546548 127.00171 127.00171 0 0 1 21.048435 28.443832A469.32323 469.32323 0 1 1 122.877355 249.452408a125.010642 125.010642 0 0 1-18.204053-19.057368 21.190655 21.190655 0 0 1-15.075231-7.537615A511.988978 511.988978 0 1 0 511.988978 0z" fill="#8a8a8a" p-id="8496"></path><path d="M301.362401 68.976293m-21.332874 0a21.332874 21.332874 0 1 0 42.665748 0 21.332874 21.332874 0 1 0-42.665748 0Z" fill="#8a8a8a" p-id="8497"></path><path d="M105.811055 236.652683m-21.332874 0a21.332874 21.332874 0 1 0 42.665749 0 21.332874 21.332874 0 1 0-42.665749 0Z" fill="#8a8a8a" p-id="8498"></path><path d="M537.588427 688.056299l-10.666437 2.275506a17.208518 17.208518 0 0 0 6.257643 33.848161l12.799724-2.702164a17.208518 17.208518 0 0 0-8.39093-33.421503z m0 0M665.016795 457.092382a17.208518 17.208518 0 1 0 32.710407-10.808656c-1.422192-4.124356-2.844383-8.248711-4.551013-12.230848a17.208518 17.208518 0 1 0-31.999312 12.799724c1.422192 3.41326 2.559945 6.82652 3.697699 10.23978z m0 0M593.622776 663.452384l-9.386464 5.830986a17.208518 17.208518 0 1 0 17.208518 29.866023c3.697698-2.133287 7.537616-4.408794 11.093095-6.826519a17.208518 17.208518 0 0 0-19.057368-28.443833z m0 0M708.393639 505.162458a17.208518 17.208518 0 1 0-34.417037 1.422192v10.950875a17.208518 17.208518 0 1 0 34.417037 0.711096v-13.084163z m0 0M662.172412 618.084472a17.208518 17.208518 0 0 0-24.177258 3.41326c-2.133287 2.844383-4.551013 5.830986-6.826519 8.533149a17.208518 17.208518 0 0 0 1.991068 24.177258l1.279972 0.995534a17.208518 17.208518 0 0 0 23.039504-2.986603c2.844383-3.271041 5.546547-6.684301 8.106492-10.239779a17.208518 17.208518 0 0 0-3.413259-24.177258z m0 0M687.487422 555.792479a17.208518 17.208518 0 0 0-21.617312 11.235314c-1.137753 3.41326-2.275507 6.968739-3.555479 10.381999A17.208518 17.208518 0 0 0 668.430055 597.320474a17.066299 17.066299 0 0 0 3.839917 1.991069 17.208518 17.208518 0 0 0 22.186189-9.955342c1.564411-4.124356 2.986602-8.248711 4.266575-12.373067a17.208518 17.208518 0 0 0-11.235314-21.617312z m0 0M462.49671 690.474025a177.91617 177.91617 0 0 1-44.230159-14.221917l-9.813122-4.97767a182.467183 182.467183 0 0 1-17.208518-10.666437 179.765019 179.765019 0 0 1 0.711096-294.535882 180.049457 180.049457 0 0 1 201.808988-1.56441L580.538613 383.991734c-3.697698 5.404328-1.422192 9.386465 5.11989 8.817587l58.452075-5.262108a9.670903 9.670903 0 0 0 8.675369-12.657506l-15.644108-56.887664c-1.70663-6.399862-6.257643-7.110958-9.955341-1.70663l-13.51082 19.484025a213.328741 213.328741 0 0 0-156.441077-33.137064q-8.248711 1.422192-16.355203 3.41326a212.475426 212.475426 0 0 0-117.757465 78.931634l-0.711096 0.853315-2.844383 3.982136-4.551013 6.684301v0.853315a212.475426 212.475426 0 0 0-33.99038 125.29508c0 4.266575 0 8.675369 0.995534 13.084163v0.853315c0 4.408794 1.137753 8.675369 1.848849 13.084163a213.328741 213.328741 0 0 0 60.016486 115.339739 217.453096 217.453096 0 0 0 27.448298 22.897285 212.475426 212.475426 0 0 0 85.331497 35.697009 17.208518 17.208518 0 0 0 6.115423-33.990379z m0 0" fill="#8a8a8a" p-id="8499"></path><path d="M483.545146 374.320831a14.221916 14.221916 0 0 0-14.221916 14.221916v138.94812l127.997244 65.278594a14.221916 14.221916 0 1 0 12.799725-24.746134L497.767062 510.140129V388.258308a14.221916 14.221916 0 0 0-14.221916-14.221916z m0 0" fill="#8a8a8a" p-id="8500"></path></svg>