<?xml version="1.0" standalone="no"?><!DOCTYPE svg PUBLIC "-//W3C//DTD SVG 1.1//EN" "http://www.w3.org/Graphics/SVG/1.1/DTD/svg11.dtd"><svg t="1513502593066" class="icon" style="" viewBox="0 0 1024 1024" version="1.1" xmlns="http://www.w3.org/2000/svg" p-id="2660" xmlns:xlink="http://www.w3.org/1999/xlink" width="200" height="200"><defs><style type="text/css"></style></defs><path d="M512 512m-512 0a512 512 0 1 0 1024 0 512 512 0 1 0-1024 0Z" fill="#25AE88" p-id="2661"></path><path d="M934.523586 801.121103C922.924138 688.286897 827.603862 600.275862 711.697655 600.275862h-104.977655A24.09931 24.09931 0 0 1 582.62069 576.176552v-11.387586c0-10.292966 6.69131-19.102897 16.331034-22.722207 102.470621-38.523586 172.632276-206.636138 158.384552-325.437793C743.883034 104.500966 652.711724 14.141793 540.495448 1.588966a251.851034 251.851034 0 0 0-27.100689-1.553656l-0.847449-0.017655C375.790345-0.282483 264.827586 110.486069 264.827586 247.172414c0 106.354759 67.213241 260.502069 161.456552 295.353379 9.233655 3.407448 15.095172 12.588138 15.095172 22.439724v11.211035c0 13.312-10.78731 24.09931-24.09931 24.09931h-104.977655c-115.906207 0-211.226483 88.011034-222.825931 200.845241C181.72469 935.688828 336.525241 1024 512 1024s330.27531-88.311172 422.523586-222.878897z" fill="#FBCE9D" p-id="2662"></path><path d="M591.307034 116.70069c65.588966 18.025931 127.346759 58.368 166.894345 111.616-0.282483-3.901793-0.406069-7.891862-0.865103-11.70538C743.883034 104.500966 652.711724 14.141793 540.495448 1.588966a251.851034 251.851034 0 0 0-27.100689-1.553656l-0.847449-0.017655c-122.173793-0.264828-223.514483 88.187586-243.78262 204.499862h0.088276c3.160276 4.449103 6.249931 8.951172 9.622068 13.24138 1.235862-1.536 2.489379-3.054345 3.760552-4.555035 35.310345-42.01931 94.296276-51.74731 144.472276-29.501793a123.586207 123.586207 0 0 0 164.599172-67.001379z" fill="#6B5B4B" p-id="2663"></path><path d="M934.523586 801.121103C922.924138 688.286897 827.603862 600.275862 711.697655 600.275862H653.241379l-141.241379 141.241379-141.241379-141.241379h-58.456276c-115.906207 0-211.226483 88.011034-222.825931 200.845241C181.72469 935.688828 336.525241 1024 512 1024s330.27531-88.311172 422.523586-222.878897z" fill="#556080" p-id="2664"></path><path d="M759.172414 960.300138c12.093793-6.69131 23.834483-13.929931 35.310345-21.53931V829.793103h-35.310345v130.507035zM264.827586 960.300138V829.793103h-35.310345v108.967725c11.475862 7.609379 23.216552 14.848 35.310345 21.53931z" fill="#424A60" p-id="2665"></path></svg>